<svg
  xmlns="http://www.w3.org/2000/svg"
  xmlns:xlink="http://www.w3.org/1999/xlink"
  viewBox="0 0 126 136"
  width="126"
  height="136"
  preserveAspectRatio="xMidYMid meet"
  style="
    width: 100%;
    height: 100%;
    transform: translate3d(0px, 0px, 0px);
    content-visibility: visible;
  "
>
  <defs>
    <clipPath id="__lottie_element_2">
      <rect width="126" height="136" x="0" y="0"></rect>
    </clipPath>
    <linearGradient
      id="__lottie_element_6"
      spreadMethod="pad"
      gradientUnits="userSpaceOnUse"
      x1="28.860000610351562"
      y1="-9331.3603515625"
      x2="53.83000183105469"
      y2="-9302.25"
    >
      <stop offset="4%" stop-color="rgb(69,191,227)" stop-opacity="1"></stop>
      <stop offset="100%" stop-color="rgb(219,227,140)" stop-opacity="1"></stop>
    </linearGradient>
  </defs>
  <g clip-path="url(#__lottie_element_2)">
    <g
      transform="matrix(1.329300045967102,0,0,1.3285000324249268,0,0)"
      opacity="1"
      style="display: block"
    >
      <g opacity="1" transform="matrix(1,0,0,1,0,0)">
        <g opacity="1" transform="matrix(1,0,0,1,0,0)">
          <path
            fill="rgb(76,173,56)"
            fill-opacity="0.9813242427830616"
            d=" M14.770000457763672,66.19999694824219 C14.770000457763672,66.19999694824219 74.9800033569336,66.19999694824219 74.9800033569336,66.19999694824219 C77.66999816894531,66.19999694824219 79.86000061035156,63.689998626708984 79.86000061035156,60.59000015258789 C79.86000061035156,60.59000015258789 79.86000061035156,15.029999732971191 79.86000061035156,15.029999732971191 C79.86000061035156,14.369999885559082 79.80000305175781,13.720000267028809 79.69000244140625,13.069999694824219 C79.69000244140625,13.069999694824219 82.13999938964844,10.619999885559082 82.13999938964844,10.619999885559082 C82.13999938964844,10.619999885559082 82.13999938964844,10.609999656677246 82.13999938964844,10.609999656677246 C82.29000091552734,10.479999542236328 82.38999938964844,10.289999961853027 82.4000015258789,10.09000015258789 C82.41000366210938,9.890000343322754 82.33999633789062,9.6899995803833 82.19999694824219,9.539999961853027 C82.19999694824219,9.539999961853027 79.13999938964844,6.480000019073486 79.13999938964844,6.480000019073486 C79.13999938964844,6.480000019073486 81.69999694824219,3.930000066757202 81.69999694824219,3.930000066757202 C81.69999694824219,3.930000066757202 81.69000244140625,3.930000066757202 81.69000244140625,3.930000066757202 C82.20999908447266,4.230000019073486 82.86000061035156,4.159999847412109 83.30000305175781,3.7699999809265137 C83.80999755859375,3.109999895095825 83.69999694824219,2.1600000858306885 83.05999755859375,1.6399999856948853 C83.05999755859375,1.6399999856948853 83.04000091552734,1.6299999952316284 83.04000091552734,1.6299999952316284 C82.5,0.9900000095367432 81.55000305175781,0.9100000262260437 80.91000366210938,1.4299999475479126 C80.52999877929688,1.8799999952316284 80.47000122070312,2.509999990463257 80.76000213623047,3.009999990463257 C80.76000213623047,3.009999990463257 78.20999908447266,5.559999942779541 78.20999908447266,5.559999942779541 C78.20999908447266,5.559999942779541 75.1500015258789,2.5 75.1500015258789,2.5 C74.83999633789062,2.2200000286102295 74.36000061035156,2.25 74.08000183105469,2.559999942779541 C74.08000183105469,2.559999942779541 71.55000305175781,5.090000152587891 71.55000305175781,5.090000152587891 C71.41000366210938,5.090000152587891 71.27999877929688,5.070000171661377 71.13999938964844,5.070000171661377 C71.13999938964844,5.070000171661377 18.579999923706055,5.070000171661377 18.579999923706055,5.070000171661377 C13.789999961853027,5.070000171661377 9.899999618530273,9.529999732971191 9.899999618530273,15.050000190734863 C9.899999618530273,15.050000190734863 9.899999618530273,60.58000183105469 9.899999618530273,60.58000183105469 C9.899999618530273,63.68000030517578 12.079999923706055,66.19000244140625 14.779999732971191,66.19000244140625 C14.779999732971191,66.19000244140625 14.770000457763672,66.19999694824219 14.770000457763672,66.19999694824219z"
          ></path>
        </g>
        <g opacity="1" transform="matrix(1,0,0,1,0,0)">
          <g opacity="1" transform="matrix(1,0,0,1,0,0)">
            <path
              fill="rgb(76,173,56)"
              fill-opacity="1"
              d=" M88.41999816894531,73.13999938964844 C82.83000183105469,71.11000061035156 75.05000305175781,70.0999984741211 70.05000305175781,71.48999786376953 C67.80999755859375,70 65.16999816894531,69.2300033569336 62.47999954223633,69.27999877929688 C62.47999954223633,69.27999877929688 46.650001525878906,69.33000183105469 46.650001525878906,69.33000183105469 C46.650001525878906,69.33000183105469 30.540000915527344,69.38999938964844 30.540000915527344,69.38999938964844 C30.540000915527344,69.38999938964844 30.540000915527344,69.38999938964844 30.540000915527344,69.38999938964844 C29.049999237060547,69.37999725341797 27.559999465942383,69.62999725341797 26.149999618530273,70.11000061035156 C23.969999313354492,68.3499984741211 20.329999923706055,68.55000305175781 10.220000267028809,65.77999877929688 C8.399999618530273,65.27999877929688 5.199999809265137,64.36000061035156 2.0899999141693115,65.77999877929688 C1.2300000190734863,66.05000305175781 0.5099999904632568,66.66000366210938 0.10000000149011612,67.45999908447266 C-0.6700000166893005,69.68000030517578 3.140000104904175,72.80999755859375 4.559999942779541,73.97000122070312 C9.149999618530273,77.72000122070312 16.18000030517578,81.26000213623047 21.360000610351562,81.61000061035156 C25.25,90.95999908447266 27.360000610351562,94.55999755859375 32.20000076293945,98.80999755859375 C34.099998474121094,100.5 37.029998779296875,101.26000213623047 37.970001220703125,101.5199966430664 C37.970001220703125,101.5199966430664 37.97999954223633,101.5199966430664 37.97999954223633,101.5199966430664 C40.75,102.20999908447266 43.599998474121094,102.48999786376953 46.45000076293945,102.33000183105469 C46.45000076293945,102.33000183105469 46.79999923706055,102.33000183105469 46.79999923706055,102.33000183105469 C49.650001525878906,102.4800033569336 52.52000045776367,102.19999694824219 55.290000915527344,101.5199966430664 C56.22999954223633,101.26000213623047 59.130001068115234,100.5 61.04999923706055,98.80999755859375 C61.88999938964844,98.04000091552734 62.68000030517578,97.30999755859375 63.380001068115234,96.55000305175781 C63.380001068115234,96.55000305175781 63.380001068115234,96.55000305175781 63.380001068115234,96.55000305175781 C63.93000030517578,95.98999786376953 64.44999694824219,95.41000366210938 64.93000030517578,94.80000305175781 C67.02999877929688,92.19999694824219 68.66999816894531,89.0999984741211 70.77999877929688,84.2300033569336 C73.33000183105469,84.41999816894531 77.12000274658203,83.33999633789062 85.79000091552734,82.72000122070312 C87.69999694824219,82.58000183105469 91.02999877929688,82.37000274658203 93.45999908447266,80.04000091552734 C94.19000244140625,79.5 94.66999816894531,78.69000244140625 94.79000091552734,77.80000305175781 C94.75,75.44000244140625 90.13999938964844,73.7699966430664 88.41000366210938,73.13999938964844 C88.41000366210938,73.13999938964844 88.41999816894531,73.13999938964844 88.41999816894531,73.13999938964844z"
            ></path>
          </g>
        </g>
        <g opacity="1" transform="matrix(1,0,0,1,0,0)">
          <path
            fill="rgb(255,255,255)"
            fill-opacity="0.9813242427830616"
            d=" M9.739999771118164,1.850000023841858 C9.739999771118164,2.630000114440918 8.569999694824219,2.630000114440918 8.569999694824219,1.850000023841858 C8.569999694824219,1.0700000524520874 9.739999771118164,1.0700000524520874 9.739999771118164,1.850000023841858"
          ></path>
        </g>
        <g opacity="1" transform="matrix(1,0,0,1,0,0)">
          <path
            fill="rgb(255,255,255)"
            fill-opacity="0.9813242427830616"
            d=" M83.30000305175781,3.0299999713897705 C83.18000030517578,3.2100000381469727 82.95999908447266,3.299999952316284 82.75,3.25 C82.54000091552734,3.200000047683716 82.37999725341797,3.009999990463257 82.36000061035156,2.799999952316284 C82.33999633789062,2.5799999237060547 82.44999694824219,2.380000114440918 82.6500015258789,2.2899999618530273 C82.8499984741211,2.200000047683716 83.08000183105469,2.2300000190734863 83.23999786376953,2.390000104904175 C83.43000030517578,2.549999952316284 83.45999908447266,2.8299999237060547 83.30000305175781,3.0299999713897705 C83.30000305175781,3.0299999713897705 83.30000305175781,3.0299999713897705 83.30000305175781,3.0299999713897705z"
          ></path>
        </g>
        <g opacity="1" transform="matrix(1,0,0,1,0,0)">
          <path
            fill="rgb(255,255,255)"
            fill-opacity="0.9813242427830616"
            d=" M42.56999969482422,35.63999938964844 C42.56999969482422,40.65999984741211 38.5,44.7400016784668 33.47999954223633,44.7400016784668 C28.450000762939453,44.7400016784668 24.3799991607666,40.65999984741211 24.3799991607666,35.63999938964844 C24.3799991607666,30.6200008392334 28.450000762939453,26.540000915527344 33.47999954223633,26.540000915527344 C38.5,26.540000915527344 42.56999969482422,30.6200008392334 42.56999969482422,35.63999938964844"
          ></path>
        </g>
        <g opacity="1" transform="matrix(1,0,0,1,0,0)">
          <path
            fill="rgb(239,247,252)"
            fill-opacity="0.9813242427830616"
            d=" M40.0099983215332,35.63999938964844 C40.0099983215332,39.25 37.09000015258789,42.18000030517578 33.47999954223633,42.18000030517578 C29.8700008392334,42.18000030517578 26.940000534057617,39.25 26.940000534057617,35.63999938964844 C26.940000534057617,32.029998779296875 29.8700008392334,29.110000610351562 33.47999954223633,29.110000610351562 C37.09000015258789,29.110000610351562 40.0099983215332,32.029998779296875 40.0099983215332,35.63999938964844"
          ></path>
        </g>
        <g opacity="1" transform="matrix(1,0,0,1,0,0)">
          <path
            fill="rgb(0,0,0)"
            fill-opacity="0.9813242427830616"
            d=" M38.959999084472656,35.63999938964844 C38.959999084472656,38.66999816894531 36.5099983215332,41.119998931884766 33.47999954223633,41.119998931884766 C30.450000762939453,41.119998931884766 27.989999771118164,38.66999816894531 27.989999771118164,35.63999938964844 C27.989999771118164,32.61000061035156 30.450000762939453,30.15999984741211 33.47999954223633,30.15999984741211 C36.5099983215332,30.15999984741211 38.959999084472656,32.61000061035156 38.959999084472656,35.63999938964844"
          ></path>
        </g>
        <g opacity="1" transform="matrix(1,0,0,1,0,0)">
          <path
            fill="rgb(239,247,252)"
            fill-opacity="0.9813242427830616"
            d=" M36.97999954223633,34.209999084472656 C36.97999954223633,35.029998779296875 36.4900016784668,35.779998779296875 35.72999954223633,36.09000015258789 C34.970001220703125,36.40999984741211 34.099998474121094,36.22999954223633 33.52000045776367,35.650001525878906 C32.939998626708984,35.06999969482422 32.7599983215332,34.20000076293945 33.06999969482422,33.439998626708984 C33.38999938964844,32.68000030517578 34.130001068115234,32.18000030517578 34.95000076293945,32.18000030517578 C35.4900016784668,32.18000030517578 36.0099983215332,32.400001525878906 36.38999938964844,32.779998779296875 C36.77000045776367,33.15999984741211 36.97999954223633,33.66999816894531 36.97999954223633,34.209999084472656 C36.97999954223633,34.209999084472656 36.97999954223633,34.209999084472656 36.97999954223633,34.209999084472656z"
          ></path>
        </g>
        <g opacity="1" transform="matrix(1,0,0,1,0,0)">
          <path
            fill="rgb(239,247,252)"
            fill-opacity="0.9813242427830616"
            d=" M33.470001220703125,39.84000015258789 C33.470001220703125,40.91999816894531 31.850000381469727,40.91999816894531 31.850000381469727,39.84000015258789 C31.850000381469727,38.7599983215332 33.470001220703125,38.7599983215332 33.470001220703125,39.84000015258789"
          ></path>
        </g>
        <g opacity="1" transform="matrix(1,0,0,1,0,0)">
          <path
            fill="rgb(239,247,252)"
            fill-opacity="0.9813242427830616"
            d=" M30.649999618530273,38.630001068115234 C30.649999618530273,38.86000061035156 30.459999084472656,39.040000915527344 30.239999771118164,39.040000915527344 C30.010000228881836,39.040000915527344 29.829999923706055,38.86000061035156 29.829999923706055,38.630001068115234 C29.829999923706055,38.40999984741211 30.010000228881836,38.220001220703125 30.239999771118164,38.220001220703125 C30.459999084472656,38.220001220703125 30.649999618530273,38.400001525878906 30.649999618530273,38.619998931884766 C30.649999618530273,38.619998931884766 30.649999618530273,38.630001068115234 30.649999618530273,38.630001068115234z"
          ></path>
        </g>
        <g opacity="1" transform="matrix(1,0,0,1,0,0)">
          <path
            fill="rgb(255,255,255)"
            fill-opacity="0.9813242427830616"
            d=" M67.13999938964844,35.63999938964844 C67.13999938964844,40.65999984741211 63.060001373291016,44.7400016784668 58.040000915527344,44.7400016784668 C53.0099983215332,44.7400016784668 48.939998626708984,40.65999984741211 48.939998626708984,35.63999938964844 C48.939998626708984,30.6200008392334 53.0099983215332,26.540000915527344 58.040000915527344,26.540000915527344 C63.060001373291016,26.540000915527344 67.13999938964844,30.6200008392334 67.13999938964844,35.63999938964844"
          ></path>
        </g>
        <g opacity="1" transform="matrix(1,0,0,1,0,0)">
          <path
            fill="rgb(239,247,252)"
            fill-opacity="0.9813242427830616"
            d=" M64.56999969482422,35.63999938964844 C64.56999969482422,39.25 61.650001525878906,42.18000030517578 58.040000915527344,42.18000030517578 C54.43000030517578,42.18000030517578 51.5,39.25 51.5,35.63999938964844 C51.5,32.029998779296875 54.43000030517578,29.110000610351562 58.040000915527344,29.110000610351562 C61.650001525878906,29.110000610351562 64.56999969482422,32.029998779296875 64.56999969482422,35.63999938964844"
          ></path>
        </g>
        <g opacity="1" transform="matrix(1,0,0,1,0,0)">
          <path
            fill="rgb(0,0,0)"
            fill-opacity="0.9813242427830616"
            d=" M63.52000045776367,35.63999938964844 C63.52000045776367,38.66999816894531 61.06999969482422,41.119998931884766 58.040000915527344,41.119998931884766 C55.0099983215332,41.119998931884766 52.54999923706055,38.66999816894531 52.54999923706055,35.63999938964844 C52.54999923706055,32.61000061035156 55.0099983215332,30.15999984741211 58.040000915527344,30.15999984741211 C61.06999969482422,30.15999984741211 63.52000045776367,32.61000061035156 63.52000045776367,35.63999938964844"
          ></path>
        </g>
        <g opacity="1" transform="matrix(1,0,0,1,0,0)">
          <path
            fill="rgb(239,247,252)"
            fill-opacity="0.9813242427830616"
            d=" M61.58000183105469,34.209999084472656 C61.58000183105469,35.029998779296875 61.08000183105469,35.779998779296875 60.31999969482422,36.09000015258789 C59.560001373291016,36.40999984741211 58.689998626708984,36.22999954223633 58.11000061035156,35.650001525878906 C57.529998779296875,35.06999969482422 57.349998474121094,34.20000076293945 57.66999816894531,33.439998626708984 C57.97999954223633,32.68000030517578 58.72999954223633,32.18000030517578 59.54999923706055,32.18000030517578 C60.09000015258789,32.18000030517578 60.599998474121094,32.400001525878906 60.97999954223633,32.779998779296875 C61.36000061035156,33.15999984741211 61.58000183105469,33.66999816894531 61.58000183105469,34.209999084472656 C61.58000183105469,34.209999084472656 61.58000183105469,34.209999084472656 61.58000183105469,34.209999084472656z"
          ></path>
        </g>
        <g opacity="1" transform="matrix(1,0,0,1,0,0)">
          <path
            fill="rgb(239,247,252)"
            fill-opacity="0.9813242427830616"
            d=" M58.040000915527344,39.84000015258789 C58.040000915527344,40.91999816894531 56.41999816894531,40.91999816894531 56.41999816894531,39.84000015258789 C56.41999816894531,38.7599983215332 58.040000915527344,38.7599983215332 58.040000915527344,39.84000015258789"
          ></path>
        </g>
        <g opacity="1" transform="matrix(1,0,0,1,0,0)">
          <path
            fill="rgb(239,247,252)"
            fill-opacity="0.9813242427830616"
            d=" M55.220001220703125,38.630001068115234 C55.220001220703125,38.79999923706055 55.11000061035156,38.959999084472656 54.959999084472656,39.02000045776367 C54.79999923706055,39.08000183105469 54.63999938964844,39.04999923706055 54.52000045776367,38.93000030517578 C54.400001525878906,38.810001373291016 54.36000061035156,38.630001068115234 54.43000030517578,38.47999954223633 C54.4900016784668,38.31999969482422 54.630001068115234,38.220001220703125 54.79999923706055,38.220001220703125 C54.79999923706055,38.220001220703125 54.810001373291016,38.220001220703125 54.810001373291016,38.220001220703125 C55.040000915527344,38.220001220703125 55.220001220703125,38.40999984741211 55.220001220703125,38.630001068115234 C55.220001220703125,38.630001068115234 55.220001220703125,38.630001068115234 55.220001220703125,38.630001068115234z"
          ></path>
        </g>
        <g opacity="1" transform="matrix(1,0,0,1,0,0)">
          <path
            fill="rgb(255,255,255)"
            fill-opacity="0.9813242427830616"
            d=" M77.5999984741211,17.520000457763672 C77.2699966430664,19.040000915527344 75.62999725341797,20.510000228881836 74.19000244140625,20.31999969482422 C72.75,20.1299991607666 72.12999725341797,18.559999465942383 71.38999938964844,16.920000076293945 C70.6500015258789,15.279999732971191 69.18000030517578,11.260000228881836 70.33000183105469,10.5 C71.87000274658203,9.5 78.33999633789062,13.970000267028809 77.58999633789062,17.520000457763672 C77.58999633789062,17.520000457763672 77.5999984741211,17.520000457763672 77.5999984741211,17.520000457763672z"
          ></path>
        </g>
        <g opacity="1" transform="matrix(1,0,0,1,0,0)">
          <path
            fill="rgb(255,255,255)"
            fill-opacity="0.9813242427830616"
            d=" M68.61000061035156,9.449999809265137 C68.61000061035156,10.970000267028809 66.33000183105469,10.970000267028809 66.33000183105469,9.449999809265137 C66.33000183105469,7.929999828338623 68.61000061035156,7.929999828338623 68.61000061035156,9.449999809265137"
          ></path>
        </g>
        <g opacity="1" transform="matrix(1,0,0,1,0,0)">
          <path
            fill="rgb(255,255,255)"
            fill-opacity="0.9813242427830616"
            d=" M76.70999908447266,6.78000020980835 C75.91999816894531,6.150000095367432 75.05000305175781,5.630000114440918 74.11000061035156,5.25 C73.69999694824219,5.150000095367432 73.30999755859375,5 72.93000030517578,4.820000171661377 C73.31999969482422,4.739999771118164 73.73999786376953,4.769999980926514 74.12000274658203,4.880000114440918 C75.2300033569336,5.099999904632568 76.18000030517578,5.789999961853027 76.72000122070312,6.78000020980835 C76.72000122070312,6.78000020980835 76.70999908447266,6.78000020980835 76.70999908447266,6.78000020980835z"
          ></path>
        </g>
        <g opacity="1" transform="matrix(1,0,0,1,0,0)">
          <path
            fill="rgb(255,255,255)"
            fill-opacity="0.9813242427830616"
            d=" M56.7599983215332,3.059999942779541 C56.68000030517578,3.059999942779541 56.619998931884766,2.5899999141693115 56.22999954223633,1.8600000143051147 C56.11000061035156,1.6299999952316284 55.970001220703125,1.409999966621399 55.81999969482422,1.2100000381469727 C55.130001068115234,0.25999999046325684 52.79999923706055,0.2800000011920929 52.619998931884766,0.28999999165534973 C48.97999954223633,0.28999999165534973 46.63999938964844,0.09000000357627869 46.63999938964844,0.10999999940395355 C46.63999938964844,0.12999999523162842 48.36000061035156,0.10999999940395355 49.599998474121094,0.05999999865889549 C53.130001068115234,-0.009999999776482582 55.22999954223633,-0.1899999976158142 56.130001068115234,0.75 C56.130001068115234,0.75 56.130001068115234,0.7400000095367432 56.130001068115234,0.7400000095367432 C56.369998931884766,1.0099999904632568 56.560001373291016,1.309999942779541 56.689998626708984,1.649999976158142 C56.88999938964844,2.0899999141693115 56.91999816894531,2.5999999046325684 56.7599983215332,3.059999942779541 C56.7599983215332,3.059999942779541 56.7599983215332,3.059999942779541 56.7599983215332,3.059999942779541z"
          ></path>
        </g>
        <g opacity="1" transform="matrix(1,0,0,1,0,0)">
          <path
            fill="rgb(239,247,252)"
            fill-opacity="0.9813242427830616"
            d=" M54.91999816894531,50.290000915527344 C54.810001373291016,51.15999984741211 54.11000061035156,51.83000183105469 53.2400016784668,51.90999984741211 C53.2400016784668,51.90999984741211 41.189998626708984,53.06999969482422 41.189998626708984,53.06999969482422 C41.189998626708984,53.06999969482422 41.18000030517578,53.06999969482422 41.18000030517578,53.06999969482422 C40.310001373291016,53.16999816894531 39.4900016784668,52.63999938964844 39.220001220703125,51.79999923706055 C39.099998474121094,51.41999816894531 39.0099983215332,51.029998779296875 38.959999084472656,50.63999938964844 C38.939998626708984,50.529998779296875 38.970001220703125,50.41999816894531 39.040000915527344,50.34000015258789 C39.11000061035156,50.25 39.209999084472656,50.20000076293945 39.31999969482422,50.18000030517578 C39.31999969482422,50.18000030517578 54.52000045776367,48.720001220703125 54.52000045776367,48.720001220703125 C54.630001068115234,48.709999084472656 54.72999954223633,48.7400016784668 54.810001373291016,48.810001373291016 C54.88999938964844,48.880001068115234 54.95000076293945,48.9900016784668 54.959999084472656,49.099998474121094 C54.970001220703125,49.4900016784668 54.959999084472656,49.88999938964844 54.91999816894531,50.279998779296875 C54.91999816894531,50.279998779296875 54.91999816894531,50.290000915527344 54.91999816894531,50.290000915527344z"
          ></path>
        </g>
        <g opacity="1" transform="matrix(1,0,0,1,0,0)">
          <path
            fill="rgb(255,255,255)"
            fill-opacity="0.9813242427830616"
            d=" M54.779998779296875,50.900001525878906 C54.33000183105469,53.970001220703125 50.380001068115234,56.20000076293945 45.959999084472656,55.880001068115234 C42.79999923706055,55.650001525878906 40.11000061035156,54.15999984741211 39.130001068115234,52.060001373291016 C39.59000015258789,52.63999938964844 40.310001373291016,52.93000030517578 41.040000915527344,52.84000015258789 C41.040000915527344,52.84000015258789 53.09000015258789,52.029998779296875 53.09000015258789,52.029998779296875 C53.09000015258789,52.029998779296875 53.09000015258789,52.029998779296875 53.09000015258789,52.029998779296875 C53.84000015258789,52.06999969482422 54.529998779296875,51.61000061035156 54.779998779296875,50.900001525878906 C54.779998779296875,50.900001525878906 54.779998779296875,50.900001525878906 54.779998779296875,50.900001525878906z"
          ></path>
        </g>
        <g opacity="1" transform="matrix(1,0,0,1,0,0)">
          <path
            fill="url(#__lottie_element_6)"
            fill-opacity="0.9813242427830616"
            d=" M48.18000030517578,68.29000091552734 C48.18000030517578,68.29000091552734 32.11000061035156,68.36000061035156 32.11000061035156,68.36000061035156 C32.11000061035156,68.36000061035156 32.099998474121094,68.36000061035156 32.099998474121094,68.36000061035156 C28.75,68.33999633789062 25.559999465942383,69.81999969482422 23.43000030517578,72.41000366210938 C22.260000228881836,73.79000091552734 21.549999237060547,75.48999786376953 21.40999984741211,77.29000091552734 C21.540000915527344,75.44000244140625 22.270000457763672,73.69000244140625 23.489999771118164,72.29000091552734 C25.690000534057617,69.66999816894531 28.959999084472656,68.16999816894531 32.38999938964844,68.22000122070312 C32.38999938964844,68.22000122070312 48.18000030517578,68.27999877929688 48.18000030517578,68.27999877929688 C48.18000030517578,68.27999877929688 48.18000030517578,68.29000091552734 48.18000030517578,68.29000091552734z"
          ></path>
        </g>
        <g opacity="1" transform="matrix(1,0,0,1,0,0)">
          <path
            fill="rgb(255,255,255)"
            fill-opacity="0.9813242427830616"
            d=" M76.30999755859375,74.69999694824219 C74.8499984741211,74.7699966430664 73.38999938964844,75 71.97000122070312,75.37999725341797 C69.37000274658203,75.95999908447266 68.05000305175781,76.76000213623047 67.5999984741211,76.20999908447266 C67.27999877929688,75.8499984741211 67.52999877929688,75.16999816894531 67.58000183105469,75.0199966430664 C68.43000030517578,72.69000244140625 72.86000061035156,72.06999969482422 75.62000274658203,72.2699966430664 C77.31999969482422,72.37999725341797 79.19999694824219,72.8499984741211 79.2699966430664,73.4800033569336 C79.2699966430664,73.4800033569336 79.2699966430664,73.4800033569336 79.2699966430664,73.4800033569336 C79.29000091552734,73.66000366210938 79.2300033569336,73.8499984741211 79.0999984741211,73.9800033569336 C78.47000122070312,74.66000366210938 77.30999755859375,74.66999816894531 76.30000305175781,74.69000244140625 C76.30000305175781,74.69000244140625 76.30999755859375,74.69999694824219 76.30999755859375,74.69999694824219z"
          ></path>
        </g>
        <g opacity="1" transform="matrix(1,0,0,1,0,0)">
          <path
            fill="rgb(255,255,255)"
            fill-opacity="0.9813242427830616"
            d=" M81.08999633789062,73.20999908447266 C81.31999969482422,73.22000122070312 81.5199966430664,73.38999938964844 81.55999755859375,73.62000274658203 C81.5999984741211,73.8499984741211 81.45999908447266,74.08000183105469 81.25,74.16000366210938 C81.02999877929688,74.23999786376953 80.77999877929688,74.16000366210938 80.66000366210938,73.95999908447266 C80.54000091552734,73.76000213623047 80.56999969482422,73.51000213623047 80.73999786376953,73.3499984741211 C80.83000183105469,73.26000213623047 80.95999908447266,73.20999908447266 81.08999633789062,73.20999908447266 C81.08999633789062,73.20999908447266 81.08999633789062,73.20999908447266 81.08999633789062,73.20999908447266z"
          ></path>
        </g>
      </g>
    </g>
  </g>
</svg>
